<mxfile host="app.diagrams.net" modified="2023-07-05T14:28:19.460Z" agent="Mozilla/5.0 (Macintosh; Intel Mac OS X 10_15_7) AppleWebKit/605.1.15 (KHTML, like Gecko) Version/16.5.1 Safari/605.1.15" version="21.5.2" etag="2AsRYvLORzOOJGOga9rF" type="github">
  <diagram name="Page-1" id="L_qZmhg8tq_LM9sBn2Zb">
    <mxGraphModel>
      <root>
        <mxCell id="0" />
        <mxCell id="1" parent="0" />
      </root>
    </mxGraphModel>
  </diagram>
</mxfile>
